<?xml version="1.0" encoding="utf-8"?>
<svg version="1.1" xmlns:xlink="http://www.w3.org/1999/xlink" width="547px" height="47px" xmlns="http://www.w3.org/2000/svg">
  <defs>
    <linearGradient gradientUnits="userSpaceOnUse" x1="393.5" y1="136.5" x2="363.415" y2="136.5" id="LinearGradient1">
      <stop id="Stop2" stop-color="#ffaa46" stop-opacity="0.996078431372549" offset="0" />
      <stop id="Stop3" stop-color="#fb9f33" stop-opacity="0.996078431372549" offset="1" />
    </linearGradient>
  </defs>
  <g transform="matrix(1 0 0 1 -120 -113 )">
    <path d="M 120.5 118  A 4.5 4.5 0 0 1 125 113.5 L 662 113.5  A 4.5 4.5 0 0 1 666.5 118 L 666.5 155  A 4.5 4.5 0 0 1 662 159.5 L 125 159.5  A 4.5 4.5 0 0 1 120.5 155 L 120.5 118  Z " fill-rule="nonzero" fill="url(#LinearGradient1)" stroke="none" />
    <path d="M 120.5 118  A 4.5 4.5 0 0 1 125 113.5 L 662 113.5  A 4.5 4.5 0 0 1 666.5 118 L 666.5 155  A 4.5 4.5 0 0 1 662 159.5 L 125 159.5  A 4.5 4.5 0 0 1 120.5 155 L 120.5 118  Z " stroke-width="1" stroke="#797979" fill="none" />
  </g>
</svg>